<?xml version="1.0" encoding="UTF-8" standalone="no"?>
<!DOCTYPE svg PUBLIC "-//W3C//DTD SVG 1.1//EN"
 "http://www.w3.org/Graphics/SVG/1.1/DTD/svg11.dtd">
<!-- Generated by graphviz version 2.40.1 (20161225.0304)
 -->
<!-- Title: %0 Pages: 1 -->
<svg width="321pt" height="108pt"
 viewBox="0.00 0.00 320.78 108.20" xmlns="http://www.w3.org/2000/svg" xmlns:xlink="http://www.w3.org/1999/xlink">
<g id="graph0" class="graph" transform="scale(1 1) rotate(0) translate(4 104.2)">
<title>%0</title>
<polygon fill="#ffffff" stroke="transparent" points="-4,4 -4,-104.2 316.7798,-104.2 316.7798,4 -4,4"/>
<!-- 段寄存器 -->
<g id="node1" class="node">
<title>段寄存器</title>
<polygon fill="none" stroke="#000000" points="0,-.5 0,-99.7 312.7798,-99.7 312.7798,-.5 0,-.5"/>
<text text-anchor="middle" x="16.9446" y="-83.1" font-family="Times,serif" font-size="14.00" fill="#000000">DS</text>
<polyline fill="none" stroke="#000000" points="0,-74.9 33.8892,-74.9 "/>
<text text-anchor="middle" x="16.9446" y="-58.3" font-family="Times,serif" font-size="14.00" fill="#000000">CS</text>
<polyline fill="none" stroke="#000000" points="0,-50.1 33.8892,-50.1 "/>
<text text-anchor="middle" x="16.9446" y="-33.5" font-family="Times,serif" font-size="14.00" fill="#000000">SS</text>
<polyline fill="none" stroke="#000000" points="0,-25.3 33.8892,-25.3 "/>
<text text-anchor="middle" x="16.9446" y="-8.7" font-family="Times,serif" font-size="14.00" fill="#000000">ES</text>
<polyline fill="none" stroke="#000000" points="33.8892,-.5 33.8892,-99.7 "/>
<text text-anchor="middle" x="173.3345" y="-83.1" font-family="Times,serif" font-size="14.00" fill="#000000">数据段，默认使用DX</text>
<polyline fill="none" stroke="#000000" points="33.8892,-74.9 312.7798,-74.9 "/>
<text text-anchor="middle" x="173.3345" y="-58.3" font-family="Times,serif" font-size="14.00" fill="#000000">代码段，保存的是代码，绑定CS:IP使用</text>
<polyline fill="none" stroke="#000000" points="33.8892,-50.1 312.7798,-50.1 "/>
<text text-anchor="middle" x="173.3345" y="-33.5" font-family="Times,serif" font-size="14.00" fill="#000000">堆栈段，用作函数栈，绑定SS:SP使用</text>
<polyline fill="none" stroke="#000000" points="33.8892,-25.3 312.7798,-25.3 "/>
<text text-anchor="middle" x="173.3345" y="-8.7" font-family="Times,serif" font-size="14.00" fill="#000000">扩展段，常用于串操作</text>
</g>
</g>
</svg>
